<svg width="40" height="40" viewBox="0 0 40 40" fill="none" xmlns="http://www.w3.org/2000/svg">
<path d="M20.765 2.76751C20.5432 2.59458 20.27 2.50067 19.9888 2.50067C19.7075 2.50067 19.4343 2.59458 19.2125 2.76751L1.25 16.7738L2.80375 18.7388L5 17.0263V32.5C5.00132 33.1626 5.26514 33.7978 5.73369 34.2663C6.20225 34.7349 6.83736 34.9987 7.5 35H32.5C33.1626 34.9987 33.7978 34.7349 34.2663 34.2663C34.7349 33.7978 34.9987 33.1626 35 32.5V17.0375L37.1963 18.75L38.75 16.785L20.765 2.76751ZM22.5 32.5H17.5V22.5H22.5V32.5ZM25 32.5V22.5C25 21.837 24.7366 21.2011 24.2678 20.7322C23.7989 20.2634 23.163 20 22.5 20H17.5C16.837 20 16.2011 20.2634 15.7322 20.7322C15.2634 21.2011 15 21.837 15 22.5V32.5H7.5V15.0775L20 5.34001L32.5 15.09V32.5H25Z" fill="#005CBE"/>
</svg>
