<svg width="36" height="36" viewBox="0 0 36 36" fill="none" xmlns="http://www.w3.org/2000/svg">
<path d="M14.25 23.376V12.624C14.2502 12.4895 14.2866 12.3575 14.3554 12.2419C14.4242 12.1262 14.5228 12.0312 14.6409 11.9668C14.759 11.9024 14.8922 11.8709 15.0267 11.8757C15.1611 11.8805 15.2918 11.9214 15.405 11.994L23.769 17.3685C23.8749 17.4364 23.962 17.5298 24.0224 17.6401C24.0828 17.7505 24.1144 17.8742 24.1144 18C24.1144 18.1258 24.0828 18.2495 24.0224 18.3599C23.962 18.4702 23.8749 18.5636 23.769 18.6315L15.405 24.0075C15.2918 24.0801 15.1611 24.121 15.0267 24.1258C14.8922 24.1306 14.759 24.0991 14.6409 24.0347C14.5228 23.9703 14.4242 23.8753 14.3554 23.7596C14.2866 23.644 14.2502 23.512 14.25 23.3775V23.376Z" fill="url(#paint0_linear_308_3612)"/>
<path d="M1.5 18C1.5 8.8875 8.8875 1.5 18 1.5C27.1125 1.5 34.5 8.8875 34.5 18C34.5 27.1125 27.1125 34.5 18 34.5C8.8875 34.5 1.5 27.1125 1.5 18ZM18 3.75C14.2207 3.75 10.5961 5.25133 7.92373 7.92373C5.25133 10.5961 3.75 14.2207 3.75 18C3.75 21.7793 5.25133 25.4039 7.92373 28.0763C10.5961 30.7487 14.2207 32.25 18 32.25C21.7793 32.25 25.4039 30.7487 28.0763 28.0763C30.7487 25.4039 32.25 21.7793 32.25 18C32.25 14.2207 30.7487 10.5961 28.0763 7.92373C25.4039 5.25133 21.7793 3.75 18 3.75Z" fill="url(#paint1_linear_308_3612)"/>
<defs>
<linearGradient id="paint0_linear_308_3612" x1="15.8926" y1="23.6074" x2="18.1452" y2="19.9388" gradientUnits="userSpaceOnUse">
<stop stop-color="#00A8FF"/>
<stop offset="1" stop-color="#005CBE"/>
</linearGradient>
<linearGradient id="paint1_linear_308_3612" x1="6.99509" y1="33.1024" x2="12.4013" y2="22.1676" gradientUnits="userSpaceOnUse">
<stop stop-color="#00A8FF"/>
<stop offset="1" stop-color="#005CBE"/>
</linearGradient>
</defs>
</svg>
