<svg width="40" height="40" viewBox="0 0 40 40" fill="none" xmlns="http://www.w3.org/2000/svg">
<path d="M35 25V20C35 18.0302 34.612 16.0796 33.8582 14.2597C33.1044 12.4399 31.9995 10.7863 30.6066 9.3934C29.2137 8.00052 27.5601 6.89563 25.7403 6.14181C23.9204 5.38799 21.9698 5 20 5C18.0302 5 16.0796 5.38799 14.2597 6.14181C12.4399 6.89563 10.7863 8.00052 9.3934 9.3934C8.00052 10.7863 6.89563 12.4399 6.14181 14.2597C5.38799 16.0796 5 18.0302 5 20V25" stroke="#005CBE" stroke-width="1.5" stroke-linecap="round"/>
<path d="M5 25V23.75H3.75V25H5ZM5 26.25H10V23.75H5V26.25ZM10.4167 26.6667V31.6667H12.9167V26.6667H10.4167ZM6.25 31.6667V25H3.75V31.6667H6.25ZM8.33333 33.75C7.18333 33.75 6.25 32.8167 6.25 31.6667H3.75C3.75 32.8822 4.23289 34.048 5.09243 34.9076C5.95197 35.7671 7.11776 36.25 8.33333 36.25V33.75ZM10.4167 31.6667C10.4167 32.8167 9.48333 33.75 8.33333 33.75V36.25C9.54891 36.25 10.7147 35.7671 11.5742 34.9076C12.4338 34.048 12.9167 32.8822 12.9167 31.6667H10.4167ZM10 26.25C10.1105 26.25 10.2165 26.2939 10.2946 26.372C10.3728 26.4502 10.4167 26.5562 10.4167 26.6667H12.9167C12.9167 25.8931 12.6094 25.1513 12.0624 24.6043C11.5154 24.0573 10.7735 23.75 10 23.75V26.25ZM35 25H36.25V23.75H35V25ZM30 26.25H35V23.75H30V26.25ZM33.75 25V31.6667H36.25V25H33.75ZM29.5833 31.6667V26.6667H27.0833V31.6667H29.5833ZM31.6667 33.75C30.5167 33.75 29.5833 32.8167 29.5833 31.6667H27.0833C27.0833 32.8822 27.5662 34.048 28.4258 34.9076C29.2853 35.7671 30.4511 36.25 31.6667 36.25V33.75ZM33.75 31.6667C33.75 32.8167 32.8167 33.75 31.6667 33.75V36.25C32.8822 36.25 34.048 35.7671 34.9076 34.9076C35.7671 34.048 36.25 32.8822 36.25 31.6667H33.75ZM30 23.75C29.2265 23.75 28.4846 24.0573 27.9376 24.6043C27.3906 25.1513 27.0833 25.8931 27.0833 26.6667H29.5833C29.5833 26.5562 29.6272 26.4502 29.7054 26.372C29.7835 26.2939 29.8895 26.25 30 26.25V23.75Z" fill="#005CBE"/>
</svg>
